<?xml version="1.0" encoding="utf-8"?>
<!-- Generator: Adobe Illustrator 16.0.0, SVG Export Plug-In . SVG Version: 6.00 Build 0)  -->
<!DOCTYPE svg PUBLIC "-//W3C//DTD SVG 1.1//EN" "http://www.w3.org/Graphics/SVG/1.1/DTD/svg11.dtd">
<svg version="1.1" id="Layer_1" xmlns="http://www.w3.org/2000/svg" xmlns:xlink="http://www.w3.org/1999/xlink" x="0px" y="0px"
	 width="330px" height="303px" viewBox="0 0 330 303" enable-background="new 0 0 330 303" xml:space="preserve">
<title>Group 261</title>
<desc>Created with Sketch.</desc>
<g>
	<g>
		<g>
			<g>
				<path fill="#02314B" d="M171.474,243.23c1.601-0.879,2.972-0.206,2.984,1.607l0.026,11.746c0.006,1.811-1.353,3.979-2.958,4.855
					l-10.804,5.903c-1.661,0.906-3.03,0.234-3.037-1.571l-0.036-11.754c-0.007-1.807,1.361-3.978,3.022-4.885L171.474,243.23z"/>
			</g>
			<g>
				<g>
					<polygon fill="#02314B" points="179.563,43.43 179.571,46.332 151.376,61.748 151.367,58.843 					"/>
				</g>
				<g>
					<path fill="#0DD9D4" d="M212.625,30.534c3.193-1.741,5.773-0.354,5.782,3.121l0.521,175.486
						c0.017,3.403-2.538,7.666-5.741,9.416l-94.106,51.423c-3.189,1.747-5.765,0.284-5.775-3.114L112.78,91.375
						c-0.008-3.47,2.547-7.666,5.75-9.411L212.625,30.534z"/>
				</g>
				<polygon fill="#FAFBFD" points="208.539,198.694 123.597,245.114 123.597,152.278 208.539,105.858 				"/>
				<polygon fill="#D7E7F7" points="201.207,194.687 130.931,233.083 130.931,156.288 201.207,117.889 				"/>
				<g>
					<path fill="#025A82" d="M209.744,16.906c7.54-4.121,13.681-0.743,13.698,7.387l0.603,200.164
						c0.025,8.198-6.074,18.195-13.612,22.32l-88.631,48.428c-7.477,4.092-13.671,0.815-13.699-7.381l-0.608-200.167
						c-0.018-8.136,6.135-18.224,13.616-22.314L209.744,16.906z M216.078,206.305L215.579,39.91
						c-0.009-3.288-2.447-4.609-5.481-2.955l-89.222,48.764c-3.03,1.65-5.455,5.629-5.447,8.926l0.501,166.391
						c0.004,3.227,2.443,4.61,5.485,2.957l89.218-48.759C213.664,213.574,216.089,209.536,216.078,206.305L216.078,206.305z
						 M174.484,256.584l-0.026-11.752c-0.011-1.814-1.384-2.48-2.984-1.604l-10.802,5.902c-1.659,0.908-3.029,3.075-3.022,4.881
						l0.036,11.761c0.007,1.806,1.376,2.478,3.037,1.571l10.804-5.908C173.132,260.563,174.492,258.395,174.484,256.584
						L174.484,256.584z M151.367,58.843l0.009,2.904l28.195-15.414l-0.017-2.904L151.367,58.843L151.367,58.843z"/>
				</g>
				<path fill="#024462" d="M206.343,8.814c-1.553-0.851-3.45-1.097-5.584-0.675c-1.292,0.259-2.687,0.771-4.121,1.558
					l-88.633,48.439c-2.375,1.297-4.614,3.202-6.574,5.463c-4.197,4.838-7.054,11.298-7.034,16.845l0.599,200.174
					c0.011,4.056,1.535,6.912,3.984,8.262l13.113,7.21c-2.446-1.355-3.971-4.208-3.99-8.268l-0.608-200.167
					c-0.01-5.551,2.85-12.007,7.042-16.854c1.958-2.254,4.199-4.162,6.575-5.459l88.637-48.438c1.44-0.782,2.821-1.295,4.124-1.56
					c2.128-0.426,4.036-0.171,5.57,0.679L206.343,8.814z"/>
			</g>
		</g>
		<g>
			<g enable-background="new    ">
				<g>
					<polygon fill="#CDCED0" points="205.397,39.329 205.389,43.295 227.944,78.319 227.938,74.243 					"/>
				</g>
				<g>
					<polygon fill="#A0A0A1" points="227.938,74.243 227.944,78.319 239.21,72.17 239.195,68.089 					"/>
				</g>
				<g>
					<polygon fill="#FAFBFD" points="205.397,39.329 227.938,74.243 239.195,68.089 214.955,34.104 					"/>
				</g>
			</g>
			<g enable-background="new    ">
				<g>
					<polygon fill="#C7391C" points="194.126,45.485 194.126,49.46 216.684,84.479 216.668,80.402 					"/>
				</g>
				<g>
					<polygon fill="#9B2C16" points="216.668,80.402 216.684,84.479 227.944,78.319 227.938,74.243 					"/>
				</g>
				<g>
					<polygon fill="#F34522" points="194.126,45.485 216.668,80.402 227.938,74.243 205.397,39.329 					"/>
				</g>
			</g>
			<g enable-background="new    ">
				<g>
					<polygon fill="#CDCED0" points="182.876,51.649 182.876,55.614 205.419,90.638 205.403,86.547 					"/>
				</g>
				<g>
					<polygon fill="#A0A0A1" points="205.403,86.547 205.419,90.638 216.684,84.479 216.668,80.402 					"/>
				</g>
				<g>
					<polygon fill="#FAFBFD" points="182.876,51.649 205.403,86.547 216.668,80.402 194.126,45.485 					"/>
				</g>
				<g>
					<polygon fill="#F34522" points="171.611,57.782 194.146,92.706 205.403,86.547 182.876,51.649 					"/>
				</g>
				<g>
					<polygon fill="#C7391C" points="171.611,57.782 171.6,61.765 194.159,96.783 194.146,92.706 					"/>
				</g>
				<g>
					<polygon fill="#9B2C16" points="194.146,92.706 194.159,96.783 205.419,90.638 205.403,86.547 					"/>
				</g>
				<g>
					<polygon fill="#CDCED0" points="160.406,63.906 160.339,67.914 182.891,102.949 182.884,98.861 					"/>
				</g>
				<g>
					<polygon fill="#A0A0A1" points="182.884,98.861 182.891,102.949 194.159,96.783 194.146,92.706 					"/>
				</g>
				<g>
					<polygon fill="#FAFBFD" points="160.406,63.906 182.884,98.861 194.146,92.706 171.611,57.782 					"/>
				</g>
			</g>
			<g enable-background="new    ">
				<g>
					<polygon fill="#C7391C" points="149.12,70.081 149.078,74.08 171.634,109.092 171.618,105.018 					"/>
				</g>
				<g>
					<polygon fill="#9B2C16" points="171.618,105.018 171.634,109.092 182.891,102.949 182.884,98.861 					"/>
				</g>
				<g>
					<polygon fill="#F34522" points="149.12,70.081 171.618,105.018 182.884,98.861 160.406,63.906 					"/>
				</g>
			</g>
			<g enable-background="new    ">
				<g>
					<polygon fill="#CDCED0" points="137.809,76.26 137.817,80.231 160.371,115.254 160.354,111.167 					"/>
				</g>
				<g>
					<polygon fill="#A0A0A1" points="160.354,111.167 160.371,115.254 171.634,109.092 171.618,105.018 					"/>
				</g>
				<g>
					<polygon fill="#FAFBFD" points="137.809,76.26 160.354,111.167 171.618,105.018 149.12,70.081 					"/>
				</g>
			</g>
			<g enable-background="new    ">
				<g>
					<polygon fill="#C7391C" points="126.548,82.417 126.553,86.389 149.104,121.413 149.102,117.329 					"/>
				</g>
				<g>
					<polygon fill="#9B2C16" points="149.102,117.329 149.104,121.413 160.371,115.254 160.354,111.167 					"/>
				</g>
				<g>
					<polygon fill="#F34522" points="126.548,82.417 149.102,117.329 160.354,111.167 137.809,76.26 					"/>
				</g>
			</g>
			<g enable-background="new    ">
				<g>
					<polygon fill="#CDCED0" points="115.284,88.565 115.292,92.539 137.844,127.568 137.833,123.479 					"/>
				</g>
				<g>
					<polygon fill="#A0A0A1" points="137.833,123.479 137.844,127.568 149.104,121.413 149.102,117.329 					"/>
				</g>
				<g>
					<polygon fill="#FAFBFD" points="115.284,88.565 137.833,123.479 149.102,117.329 126.548,82.417 					"/>
				</g>
			</g>
		</g>
	</g>
	<g>
		<g>
			<g enable-background="new    ">
				<g>
					<g>
						<g>
							<defs>
								<polygon id="SVGID_1_" points="138.906,216.564 139.069,164.837 195.943,133.377 195.78,185.101 								"/>
							</defs>
							<clipPath id="SVGID_2_">
								<use xlink:href="#SVGID_1_"  overflow="visible"/>
							</clipPath>
							<g clip-path="url(#SVGID_2_)">
								<g>
									<g>
										<g>
											<path fill="#D62027" d="M141.05,213.772c-0.528,0.289-0.958-0.009-0.956-0.681l0.142-46.1
												c0.003-0.663,0.439-1.439,0.966-1.731l52.594-29.097c0.529-0.29,0.966,0.006,0.965,0.671l-0.146,46.095
												c-0.002,0.675-0.442,1.455-0.969,1.747L141.05,213.772 M193.807,134.56l-52.597,29.092
												c-1.179,0.653-2.144,2.446-2.148,3.993l-0.145,46.094c-0.004,1.557,0.95,2.286,2.13,1.637l52.596-29.092
												c1.181-0.655,2.145-2.445,2.147-4.003l0.147-46.098C195.939,134.636,194.985,133.907,193.807,134.56"/>
											<polyline fill="#D62027" points="173.632,155.78 162.074,170.876 162.099,162.576 154.117,166.99 154.051,188.205 
												162.04,183.787 162.08,171.982 173.59,156.749 181.995,152.088 172.425,166.797 183.149,170.511 178.291,173.103 
												170.209,170.783 163.57,174.455 173.243,176.872 185.205,170.189 173.339,166.227 183.883,150.271 173.632,155.78 
																							"/>
											<polyline fill="#D62027" points="192.551,139.369 142.644,166.974 142.537,201.383 191.952,174.443 191.975,167.057 
												186.602,170.026 186.594,172.938 148.889,193.794 148.97,167.671 187.094,146.566 187.075,149.279 192.53,146.28 
												192.551,139.369 											"/>
											<path fill="#D62027" d="M153.415,197.673c-0.124,0.068-0.44,0.252-0.953,0.564c-0.222,0.128-0.421,0.248-0.565,0.327
												c-0.153,0.085-0.512,0.265-1.1,0.573c-0.253,0.13-0.46,0.238-0.658,0.349c-0.176,0.096-0.271,0.195-0.271,0.307
												c0,0.07,0.073,0.084,0.189,0.039c0.059-0.02,0.147-0.065,0.279-0.137c0.345-0.191,0.513-0.224,0.513-0.067
												c0,0.099-0.113,0.289-0.324,0.57c-0.212,0.277-0.36,0.465-0.461,0.593l-2.901,3.701
												c-0.084,0.084-0.142,0.139-0.178,0.155c-0.085,0.049-0.125,0.029-0.125-0.081l0.008-2.287
												c0-0.282,0.053-0.479,0.155-0.614c0.127-0.162,0.421-0.369,0.869-0.615c0.26-0.146,0.387-0.279,0.387-0.381
												c0.002-0.107-0.081-0.107-0.241-0.02c-0.197,0.11-0.494,0.277-0.887,0.516c-0.393,0.237-0.696,0.415-0.892,0.524
												c-0.165,0.089-0.535,0.277-1.098,0.554l-0.647,0.357c-0.199,0.107-0.303,0.213-0.303,0.323
												c0,0.096,0.131,0.087,0.395-0.061c0.456-0.249,0.739-0.371,0.866-0.339c0.088,0.027,0.146,0.155,0.145,0.422
												l-0.017,5.063c0,0.264-0.066,0.477-0.207,0.636c-0.132,0.142-0.404,0.329-0.805,0.552
												c-0.266,0.146-0.399,0.272-0.399,0.367c0,0.085,0.104,0.073,0.301-0.04l0.755-0.418l1.015-0.557l0.746-0.414l1.013-0.561
												c0.161-0.091,0.242-0.182,0.242-0.26c0-0.088-0.124-0.08-0.389,0.068c-0.588,0.325-0.917,0.42-0.988,0.238
												c-0.013-0.047-0.029-0.23-0.028-0.57l0.007-1.693c0-0.091,0.068-0.201,0.196-0.367c0.127-0.142,0.219-0.269,0.304-0.351
												c0.019-0.054,0.082-0.15,0.184-0.274c0.11-0.135,0.192-0.211,0.242-0.245c0.071-0.037,0.134-0.033,0.221-0.011
												l0.145,0.074l2.447,0.805c0.199,0.077,0.311,0.103,0.332,0.119c0.138,0.071,0.196,0.148,0.196,0.238
												c0,0.182-0.256,0.417-0.776,0.706c-0.307,0.168-0.464,0.301-0.464,0.38c0,0.077,0.088,0.063,0.229-0.02l0.815-0.448
												l0.987-0.547l0.813-0.451l1.113-0.616c0.214-0.119,0.323-0.212,0.323-0.274c0-0.073-0.13-0.046-0.394,0.099
												c-0.331,0.162-0.623,0.247-0.859,0.219c-0.075,0.002-0.202-0.031-0.417-0.085c-0.253-0.079-0.476-0.156-0.681-0.228
												l-2.797-0.954c-0.184,0.01-0.268-0.062-0.268-0.196c0-0.031,0.045-0.12,0.139-0.244c0.103-0.131,0.182-0.23,0.226-0.29
												l1.676-2.126c0.52-0.673,0.977-1.181,1.358-1.51c0.2-0.173,0.417-0.329,0.651-0.462l0.412-0.225
												c0.147-0.085,0.243-0.136,0.284-0.17c0.11-0.089,0.171-0.156,0.171-0.227
												C153.664,197.579,153.575,197.582,153.415,197.673"/>
											<path fill="#D62027" d="M158.643,198.813c-0.202,0.116-0.307,0.134-0.307,0.085l1.156-2.731
												c0.06-0.278,0.141-0.431,0.243-0.489c0.124-0.069,0.218-0.013,0.277,0.203l1.066,1.285
												c0.052,0.088,0.074,0.139,0.074,0.179c-0.001,0.046-0.082,0.127-0.243,0.218l-0.088,0.047l-0.12,0.067l-1.778,0.984
												L158.643,198.813 M160.203,193.772l-0.176,0.178l-0.12,0.215l-3.014,7.237c-0.11,0.263-0.192,0.464-0.25,0.602
												c-0.133,0.285-0.245,0.477-0.34,0.608c-0.163,0.195-0.412,0.391-0.771,0.589c-0.284,0.157-0.424,0.29-0.424,0.389
												c-0.001,0.083,0.081,0.085,0.255-0.011l0.117-0.086l0.147-0.091l0.581-0.352c0.344-0.201,0.587-0.34,0.738-0.423
												l0.566-0.283c0.353-0.17,0.608-0.289,0.768-0.38c0.244-0.133,0.368-0.23,0.368-0.292c0-0.085-0.132-0.068-0.393,0.083
												c-0.698,0.383-1.047,0.45-1.047,0.187c0-0.131,0.068-0.38,0.196-0.761l0.492-1.131c0.08-0.191,0.153-0.363,0.234-0.533
												c0.05-0.074,0.237-0.191,0.529-0.353l2.134-1.181c0.398-0.221,0.64-0.306,0.714-0.263c0.06,0.042,0.14,0.137,0.257,0.28
												l0.469,0.591c0.09,0.091,0.143,0.165,0.179,0.219l0.062,0.223c0,0.15-0.128,0.322-0.357,0.491
												c-0.117,0.097-0.329,0.219-0.65,0.4c-0.313,0.176-0.47,0.312-0.47,0.451c-0.001,0.064,0.086,0.042,0.276-0.066
												l0.753-0.459c0.458-0.272,0.796-0.468,0.992-0.576l0.875-0.456c0.529-0.263,0.91-0.457,1.144-0.587
												c0.185-0.1,0.289-0.185,0.289-0.253c0-0.128-0.165-0.091-0.479,0.082c-0.321,0.18-0.599,0.195-0.827,0.068
												c-0.094-0.047-0.25-0.198-0.452-0.479l-3.157-3.814C160.359,193.743,160.29,193.723,160.203,193.772"/>
											<path fill="#D62027" d="M170.623,188.345c-1.464,0.812-2.729,1.836-3.792,3.092c-1.102,1.291-1.663,2.464-1.663,3.485
												c-0.006,1.004,0.49,1.582,1.488,1.744c1.01,0.153,2.22-0.152,3.638-0.938c0.982-0.542,1.923-1.227,2.798-2.023
												c0.26-0.232,0.4-0.374,0.451-0.447c0.044-0.063,0.074-0.196,0.083-0.381l0.063-0.928c0.018-0.11-0.044-0.132-0.154-0.071
												l-1.148,1.845c-0.499,0.646-1.138,1.183-1.924,1.616c-1.157,0.645-2.138,0.782-2.956,0.435
												c-0.647-0.277-0.975-0.817-0.975-1.605c0.004-0.925,0.327-1.855,0.982-2.819c0.736-1.075,1.718-1.946,2.971-2.639
												c1.311-0.726,2.308-0.819,2.981-0.263c0.116-0.066,0.171-0.142,0.171-0.232l-0.126-0.63
												c-0.017-0.114-0.023-0.207-0.029-0.267c-0.021-0.116-0.138-0.145-0.379-0.074
												C172.345,187.483,171.516,187.852,170.623,188.345"/>
											<path fill="#D62027" d="M181.875,182.267c-0.33,0.182-1.165,0.651-2.491,1.415c-0.574,0.324-1.08,0.613-1.51,0.854
												c-0.243,0.132-0.858,0.454-1.825,0.955l-1.07,0.591c-0.187,0.102-0.278,0.209-0.278,0.356c0,0.073,0.123,0.04,0.395-0.11
												c0.455-0.253,0.739-0.354,0.857-0.326c0.104,0.026,0.144,0.176,0.144,0.445l-0.016,4.722
												c-0.004,0.35-0.02,0.56-0.024,0.616c-0.076,0.255-0.397,0.539-0.984,0.868c-0.271,0.148-0.397,0.261-0.397,0.363
												c0,0.101,0.094,0.087,0.28-0.02l0.469-0.257l0.47-0.257l6.259-3.467l0.022-0.059l0.275-1.345
												c0.029-0.143,0.044-0.233,0.044-0.295c0.001-0.074-0.052-0.09-0.168-0.025c-0.086,0.046-0.197,0.243-0.339,0.587
												c-0.244,0.598-0.587,1.089-1.058,1.478c-0.295,0.249-0.843,0.593-1.669,1.052c-0.726,0.403-1.207,0.622-1.432,0.664
												c-0.327,0.057-0.492-0.17-0.487-0.63l0.009-1.954c0-0.219,0.084-0.383,0.276-0.527c0.052-0.031,0.229-0.136,0.514-0.295
												c0.91-0.502,1.527-0.814,1.869-0.95c0.273-0.103,0.465,0.031,0.554,0.405c0,0.126,0.074,0.13,0.205,0.059
												c0.108-0.059,0.153-0.138,0.153-0.276l-0.077-0.984l0.085-1.021c0-0.065-0.043-0.077-0.154-0.02
												c-0.131,0.075-0.201,0.188-0.201,0.313c-0.062,0.272-0.106,0.452-0.167,0.576c-0.096,0.227-0.212,0.371-0.344,0.477
												c-0.215,0.133-0.471,0.283-0.771,0.454l-1.152,0.632c-0.353,0.198-0.563,0.286-0.646,0.295
												c-0.102,0.012-0.144-0.119-0.144-0.357l0.007-1.715c0.002-0.238,0.088-0.423,0.27-0.597
												c0.163-0.128,0.542-0.354,1.155-0.694c0.372-0.204,0.687-0.369,0.967-0.517c0.625-0.314,1.078-0.46,1.333-0.409
												c0.16,0.104,0.295,0.164,0.37,0.231l0.251,0.169l0.084,0.107l0.148-0.004c0.085-0.052,0.139-0.152,0.142-0.318v-0.947
												v-0.182C182.089,182.222,182.023,182.185,181.875,182.267"/>
											<path fill="#D62027" d="M190.63,177.422c-0.336,0.188-1.16,0.652-2.504,1.424c-0.563,0.321-1.063,0.604-1.504,0.85
												c-0.244,0.136-0.85,0.453-1.825,0.956l-1.069,0.591c-0.184,0.103-0.279,0.209-0.279,0.356
												c0,0.076,0.141,0.032,0.397-0.108c0.456-0.253,0.749-0.36,0.864-0.333c0.098,0.03,0.15,0.177,0.146,0.449l-0.015,4.722
												c0,0.35-0.018,0.557-0.031,0.618c-0.065,0.252-0.39,0.537-0.984,0.868c-0.255,0.139-0.397,0.264-0.397,0.363
												c0,0.103,0.096,0.089,0.279-0.018l0.469-0.257l0.479-0.265l6.252-3.46l0.028-0.063l0.281-1.348
												c0.017-0.137,0.044-0.235,0.044-0.299c0-0.073-0.064-0.084-0.183-0.02c-0.085,0.044-0.199,0.25-0.334,0.586
												c-0.248,0.604-0.592,1.094-1.056,1.48c-0.303,0.246-0.861,0.601-1.678,1.055c-0.725,0.402-1.196,0.615-1.419,0.658
												c-0.33,0.056-0.499-0.165-0.498-0.628l0.006-1.951c0.002-0.218,0.085-0.386,0.278-0.527
												c0.056-0.027,0.235-0.139,0.529-0.304c0.895-0.493,1.517-0.812,1.854-0.943c0.278-0.108,0.452,0.031,0.564,0.404
												c0,0.123,0.064,0.134,0.197,0.063c0.11-0.063,0.16-0.145,0.16-0.284l-0.075-0.984l0.084-1.021
												c0-0.066-0.052-0.073-0.16-0.014c-0.136,0.073-0.2,0.183-0.2,0.311c-0.052,0.268-0.109,0.453-0.161,0.577
												c-0.092,0.226-0.212,0.369-0.355,0.476c-0.21,0.136-0.471,0.29-0.766,0.454l-1.138,0.629
												c-0.366,0.201-0.582,0.29-0.657,0.301c-0.095,0.006-0.146-0.121-0.146-0.357l0.004-1.716
												c0.003-0.235,0.09-0.423,0.28-0.601c0.156-0.123,0.535-0.349,1.154-0.69c0.366-0.202,0.682-0.368,0.966-0.518
												c0.624-0.316,1.065-0.451,1.318-0.403c0.177,0.096,0.313,0.158,0.389,0.223l0.248,0.176l0.084,0.107l0.15-0.011
												c0.089-0.05,0.136-0.144,0.136-0.311l0.006-0.95v-0.182C190.834,177.38,190.771,177.346,190.63,177.422"/>
										</g>
									</g>
								</g>
							</g>
						</g>
					</g>
				</g>
			</g>
		</g>
	</g>
</g>
</svg>
